<svg xmlns="http://www.w3.org/2000/svg" viewBox="0 0 146 110"><defs><style>.cls-1,.cls-2,.cls-3,.cls-4{fill:none;}.cls-1,.cls-2{stroke:#000;}.cls-1,.cls-3{stroke-miterlimit:10;}.cls-1,.cls-2,.cls-3{stroke-width:1.5px;}.cls-2{stroke-linecap:round;stroke-linejoin:round;}.cls-3{stroke:#f05944;}</style></defs><title>001_home_Excute</title><g id="Layer_2" data-name="Layer 2"><g id="Layer_1-2" data-name="Layer 1"><g id="_Group_" data-name="&lt;Group&gt;"><path id="_Compound_Path_" data-name="&lt;Compound Path&gt;" class="cls-1" d="M145.08,29a.65.65,0,0,1-.64.64h-4.16A3.24,3.24,0,0,0,138,35.16l2.94,2.94a.64.64,0,0,1,0,.91l-3.75,3.75a.64.64,0,0,1-.91,0l-2.94-2.94a3.24,3.24,0,0,0-5.54,2.29v4.16a.65.65,0,0,1-.64.64h-5.31a.65.65,0,0,1-.64-.64V42.11a3.19,3.19,0,0,0-2-3,3.26,3.26,0,0,0-1.26-.26,3.2,3.2,0,0,0-2.27,1l-2.94,2.94a.65.65,0,0,1-.91,0L108.05,39a.65.65,0,0,1,0-.91L111,35.16a3.25,3.25,0,0,0-2.3-5.54h-4.16a.64.64,0,0,1-.64-.64V23.67a.64.64,0,0,1,.64-.64h4.16a3.25,3.25,0,0,0,2.3-5.54l-2.94-2.94a.65.65,0,0,1,0-.91l3.75-3.75a.65.65,0,0,1,.91,0l2.94,2.94a3.24,3.24,0,0,0,5.54-2.29V6.38a.64.64,0,0,1,.64-.64h5.31a.64.64,0,0,1,.64.64v4.16a3.25,3.25,0,0,0,5.54,2.3l2.94-2.94a.65.65,0,0,1,.91,0l3.75,3.75a.64.64,0,0,1,0,.91L138,17.49A3.25,3.25,0,0,0,140.28,23h4.16a.64.64,0,0,1,.64.64Zm0,0"/><path id="_Compound_Path_2" data-name="&lt;Compound Path&gt;" class="cls-1" d="M124.49,32.09a5.76,5.76,0,1,1,5.76-5.76,5.77,5.77,0,0,1-5.76,5.76Zm0,0"/></g><path id="_Path_" data-name="&lt;Path&gt;" class="cls-1" d="M42.62,39.73v-11a3.89,3.89,0,0,1,3.89-3.89H101"/><path id="_Path_2" data-name="&lt;Path&gt;" class="cls-1" d="M139.46,44.54v39a3.89,3.89,0,0,1-3.89,3.89H65.39"/><g id="_Group_2" data-name="&lt;Group&gt;"><rect id="_Rectangle_" data-name="&lt;Rectangle&gt;" class="cls-2" x="28.06" y="41.43" width="35.2" height="63.62" rx="7.75" ry="7.75"/><line id="_Path_3" data-name="&lt;Path&gt;" class="cls-2" x1="28.49" y1="51.18" x2="62.84" y2="51.18"/></g><path id="_Path_4" data-name="&lt;Path&gt;" class="cls-2" d="M101.44,88.08V99.53h0c4.45,0,8.06.21,8.06,4.67V105H72.38v-.64c0-4.57,3.7-4.88,8.27-4.88h0V88.08"/><path id="_Path_5" data-name="&lt;Path&gt;" class="cls-2" d="M24.25,78.33H8.55A7.63,7.63,0,0,1,.92,70.69V12.59A7.63,7.63,0,0,1,8.55,5h35.2a7.63,7.63,0,0,1,7.63,7.63v8.9"/><line id="_Path_6" data-name="&lt;Path&gt;" class="cls-2" x1="0.92" y1="14.71" x2="50.54" y2="14.71"/><polyline id="_Path_7" data-name="&lt;Path&gt;" class="cls-1" points="50.54 39.31 50.54 33.37 108.08 33.37"/><polyline id="_Path_8" data-name="&lt;Path&gt;" class="cls-1" points="65.39 80.02 131.13 80.02 131.13 43.41"/><line id="_Path_9" data-name="&lt;Path&gt;" class="cls-3" x1="16.61" y1="64.05" x2="24.67" y2="56.7"/><circle id="_Path_10" data-name="&lt;Path&gt;" class="cls-3" cx="14.49" cy="66.24" r="2.76"/><circle id="_Path_11" data-name="&lt;Path&gt;" class="cls-3" cx="47.36" cy="74.51" r="2.76"/><circle id="_Path_12" data-name="&lt;Path&gt;" class="cls-3" cx="93.1" cy="61.08" r="2.76"/><line id="_Path_13" data-name="&lt;Path&gt;" class="cls-3" x1="33.15" y1="62.63" x2="45.17" y2="72.81"/><line id="_Path_14" data-name="&lt;Path&gt;" class="cls-3" x1="50.12" y1="73.1" x2="58.18" y2="65.46"/><line id="_Path_15" data-name="&lt;Path&gt;" class="cls-3" x1="65.39" y1="58.96" x2="74.72" y2="50.19"/><circle id="_Path_16" data-name="&lt;Path&gt;" class="cls-3" cx="76.63" cy="48" r="2.9"/><line id="_Path_17" data-name="&lt;Path&gt;" class="cls-3" x1="79.24" y1="49.91" x2="90.69" y2="59.52"/><line id="_Path_18" data-name="&lt;Path&gt;" class="cls-3" x1="95.64" y1="59.24" x2="105.96" y2="49.49"/><line id="_Path_19" data-name="&lt;Path&gt;" class="cls-1" x1="28.06" y1="98.47" x2="63.27" y2="98.47"/><line id="_Path_20" data-name="&lt;Path&gt;" class="cls-1" x1="80.65" y1="99.53" x2="101.44" y2="99.53"/><rect class="cls-4" width="146" height="110"/></g></g></svg>