<svg xmlns="http://www.w3.org/2000/svg" xmlns:xlink="http://www.w3.org/1999/xlink" viewBox="0 0 180 33"><defs><style>.cls-1{fill:#603c96;}.cls-2{fill:url(#linear-gradient);}.cls-3{fill:none;}</style><linearGradient id="linear-gradient" x1="5.45" y1="27.44" x2="27.15" y2="5.74" gradientUnits="userSpaceOnUse"><stop offset="0.13" stop-color="#f05844"/><stop offset="1" stop-color="#603d97"/></linearGradient></defs><title>0019_COMMON_DESK_TOP</title><g id="Layer_2" data-name="Layer 2"><g id="Layer_1-2" data-name="Layer 1"><path id="_Compound_Path_" data-name="&lt;Compound Path&gt;" class="cls-1" d="M53,23.24H51.79a1.91,1.91,0,0,1-1.91-1.9V17.63H44.79v3.71a1.91,1.91,0,0,1-1.91,1.9H41.65a.4.4,0,0,1-.4-.39V10.15a.4.4,0,0,1,.4-.39h1.22a1.91,1.91,0,0,1,1.91,1.9V15h5.09V11.66a1.91,1.91,0,0,1,1.91-1.9H53a.4.4,0,0,1,.4.39v12.7A.4.4,0,0,1,53,23.24Z"/><path id="_Compound_Path_2" data-name="&lt;Compound Path&gt;" class="cls-1" d="M69.59,23.24H67.74A1.91,1.91,0,0,1,65.94,22l-.41-1.11H60.66L60.2,22a1.91,1.91,0,0,1-1.78,1.2H56.58a.4.4,0,0,1-.37-.54L61.12,10a.4.4,0,0,1,.37-.25h3.3a.4.4,0,0,1,.37.26L70,22.7A.4.4,0,0,1,69.59,23.24Zm-5-5-1.46-4.3-1.48,4.3Z"/><path id="_Compound_Path_3" data-name="&lt;Compound Path&gt;" class="cls-1" d="M82.16,18.76a4.26,4.26,0,0,1-3,4.46,6.87,6.87,0,0,1-2.27.37,8,8,0,0,1-4.42-1.33.4.4,0,0,1-.13-.52l.34-.64a1.9,1.9,0,0,1,2.49-.83,3.71,3.71,0,0,0,1.62.4,2.05,2.05,0,0,0,1.17-.32,1.14,1.14,0,0,0,.56-1,1.17,1.17,0,0,0-.62-1,6.08,6.08,0,0,0-1.54-.61q-1.31-.39-1.65-.53a3.79,3.79,0,0,1-.92-.53A3.27,3.27,0,0,1,72.68,14a4.44,4.44,0,0,1,1.12-3.11,4.49,4.49,0,0,1,3.5-1.45,9.12,9.12,0,0,1,3.94.91.4.4,0,0,1,.18.54l-.35.67a1.93,1.93,0,0,1-2.29.93,3.17,3.17,0,0,0-.92-.14,1.84,1.84,0,0,0-1,.29,1,1,0,0,0-.51.87,1.1,1.1,0,0,0,.67.92A11.14,11.14,0,0,0,78.8,15a5.15,5.15,0,0,1,2.67,1.54A3.37,3.37,0,0,1,82.16,18.76Z"/><path id="_Compound_Path_4" data-name="&lt;Compound Path&gt;" class="cls-1" d="M97.16,23.24H95.94A1.91,1.91,0,0,1,94,21.34V17.63H88.93v3.71A1.91,1.91,0,0,1,87,23.24H85.8a.4.4,0,0,1-.4-.39V10.15a.4.4,0,0,1,.4-.39H87a1.91,1.91,0,0,1,1.91,1.9V15H94V11.66a1.91,1.91,0,0,1,1.91-1.9h1.22a.4.4,0,0,1,.4.39v12.7A.4.4,0,0,1,97.16,23.24Z"/><path id="_Compound_Path_5" data-name="&lt;Compound Path&gt;" class="cls-1" d="M120.48,10.27,116.4,23a.4.4,0,0,1-.38.27h-1.91a1.91,1.91,0,0,1-1.83-1.33l-2.05-6.49-2.16,6.51a1.91,1.91,0,0,1-1.82,1.31h-1.91A.4.4,0,0,1,104,23l-3.81-12.7a.39.39,0,0,1,.38-.51h1.69a1.91,1.91,0,0,1,1.85,1.41l2,7.31,2.44-7.41a1.91,1.91,0,0,1,1.82-1.31h0a1.91,1.91,0,0,1,1.83,1.35l2.26,7.37,2.16-7.35a1.91,1.91,0,0,1,1.84-1.37h1.7A.39.39,0,0,1,120.48,10.27Z"/><path id="_Compound_Path_6" data-name="&lt;Compound Path&gt;" class="cls-1" d="M137.5,16.5a7,7,0,0,1-1.84,4.82,8,8,0,0,1-11.34,0,7,7,0,0,1-1.84-4.82,7.27,7.27,0,0,1,.5-2.57,7.77,7.77,0,0,1,12.69-2.26A7.06,7.06,0,0,1,137.5,16.5Zm-3.66,0a3.61,3.61,0,0,0-.92-2.47,3.92,3.92,0,0,0-5.14-.65,3.75,3.75,0,0,0-.73,5.56A3.67,3.67,0,0,0,130,20.29,3.71,3.71,0,0,0,132.92,19,3.64,3.64,0,0,0,133.84,16.5Z"/><path id="_Compound_Path_7" data-name="&lt;Compound Path&gt;" class="cls-1" d="M151.24,23.24H148.7a1.92,1.92,0,0,1-1.61-.87l-2.8-4.31v3.28a1.91,1.91,0,0,1-1.91,1.9h-1.22a.4.4,0,0,1-.4-.39V10.15a.4.4,0,0,1,.4-.39h5.09a4.3,4.3,0,0,1,3.56,1.43,4.19,4.19,0,0,1,.94,2.72,3.84,3.84,0,0,1-1.07,2.86,3.77,3.77,0,0,1-1.89.95l3.78,4.9A.39.39,0,0,1,151.24,23.24Zm-4.16-9.15a1.59,1.59,0,0,0-.53-1.21,2.32,2.32,0,0,0-1.61-.46h-.66v3.36h.66a2.29,2.29,0,0,0,1.61-.46A1.62,1.62,0,0,0,147.08,14.1Z"/><path id="_Compound_Path_8" data-name="&lt;Compound Path&gt;" class="cls-1" d="M166.38,23.24h-2.79a1.92,1.92,0,0,1-1.51-.73l-4-5.12v3.95a1.91,1.91,0,0,1-1.91,1.9h-1.22a.4.4,0,0,1-.4-.39V10.15a.4.4,0,0,1,.4-.39h1.22a1.91,1.91,0,0,1,1.91,1.9v3.66l3.73-4.82a1.92,1.92,0,0,1,1.52-.74h2.55a.39.39,0,0,1,.3.65l-4.83,5.74,5.34,6.46A.39.39,0,0,1,166.38,23.24Z"/><path id="_Compound_Path_9" data-name="&lt;Compound Path&gt;" class="cls-1" d="M179.21,18.76a4.26,4.26,0,0,1-3,4.46,6.86,6.86,0,0,1-2.27.37,8,8,0,0,1-4.42-1.33.4.4,0,0,1-.13-.52l.34-.64a1.9,1.9,0,0,1,2.49-.83,3.71,3.71,0,0,0,1.62.4,2.05,2.05,0,0,0,1.17-.32,1.14,1.14,0,0,0,.56-1,1.17,1.17,0,0,0-.62-1,6.07,6.07,0,0,0-1.54-.61q-1.31-.39-1.65-.53a3.79,3.79,0,0,1-.92-.53A3.27,3.27,0,0,1,169.73,14a4.44,4.44,0,0,1,1.12-3.11,4.49,4.49,0,0,1,3.5-1.45,9.12,9.12,0,0,1,3.94.91.4.4,0,0,1,.18.54l-.35.67a1.93,1.93,0,0,1-2.29.93,3.17,3.17,0,0,0-.92-.14,1.84,1.84,0,0,0-1,.29,1,1,0,0,0-.51.87,1.1,1.1,0,0,0,.67.92,11.13,11.13,0,0,0,1.79.62,5.15,5.15,0,0,1,2.67,1.54A3.37,3.37,0,0,1,179.21,18.76Z"/><path id="_Compound_Path_10" data-name="&lt;Compound Path&gt;" class="cls-2" d="M18.53,20.62a3,3,0,0,1-2.16,5.12H15.23a2.28,2.28,0,0,0-1.47.64,2.22,2.22,0,0,0-.64,1.46v.85a3,3,0,0,1-.86,2.41A3,3,0,0,1,8,31.1,3,3,0,0,1,10.41,26h.85a2.14,2.14,0,0,0,1.48-.63,2.29,2.29,0,0,0,.64-1.47V22.76a3,3,0,0,1,.88-2.15A3,3,0,0,1,18.53,20.62Zm-11.72,1a2.23,2.23,0,0,1,.64-1.46,2.28,2.28,0,0,1,1.47-.64h.82a3,3,0,1,0,.29-6H8.93a2.31,2.31,0,0,1-1.48-.63,2.12,2.12,0,0,1-.64-1.47v-.85A3,3,0,0,0,6,8.15a3,3,0,0,0-4.27,0,3,3,0,0,0,2.43,5.1H5a2.2,2.2,0,0,1,2.11,2.1v1c0,.08,0,.16,0,.24v1a2.29,2.29,0,0,1-.64,1.47A2.14,2.14,0,0,1,5,19.74H3.8a3,3,0,0,0-2.13.88,3,3,0,0,0,0,4.25,3,3,0,0,0,4.27,0,3,3,0,0,0,.86-2.34Zm22.14-1.85H27.79a2.31,2.31,0,0,1-1.48-.63,2.12,2.12,0,0,1-.64-1.47v-.87a3,3,0,0,0,0-.58v-.81a2.22,2.22,0,0,1,.64-1.46,2.28,2.28,0,0,1,1.47-.64h1.16a3,3,0,1,0-2.12-5.13,3,3,0,0,0-.88,2.14h0v1.16a2.29,2.29,0,0,1-.64,1.47,2.14,2.14,0,0,1-1.48.63H23a3,3,0,1,0,0,5.94h.8a2.2,2.2,0,0,1,2.11,2.1v1.08a3,3,0,0,0,.88,2.21,3,3,0,0,0,4.27,0,3,3,0,0,0,0-4.25A3,3,0,0,0,28.95,19.73Zm-8.42,7.14a3,3,0,0,0,0,4.25,3,3,0,0,0,4.27,0,3,3,0,0,0,0-4.25A3,3,0,0,0,20.53,26.87ZM12.23,6.13a3,3,0,0,0,0-4.25A3,3,0,0,0,8,1.88,3,3,0,0,0,8,6.13,3,3,0,0,0,12.23,6.13Zm6.28,6.24a3,3,0,0,0,.86-2.43V9.1A2.22,2.22,0,0,1,20,7.64,2.28,2.28,0,0,1,21.48,7h1.09a3,3,0,0,0,2.22-5.12,3,3,0,0,0-4.27,0A3,3,0,0,0,19.64,4h0V5.16A2.29,2.29,0,0,1,19,6.63a2.14,2.14,0,0,1-1.48.63h-.94a3,3,0,1,0,1.94,5.11Z"/><rect class="cls-3" width="180" height="33"/></g></g></svg>