<svg xmlns="http://www.w3.org/2000/svg" viewBox="0 0 98 98"><defs><style>.cls-1,.cls-2{fill:none;}.cls-1{stroke:#F05944;stroke-miterlimit:10;stroke-width:1.5px;}</style></defs><title>001_hashworks_icon2</title><g id="Layer_2" data-name="Layer 2"><g id="Layer_1-2" data-name="Layer 1"><rect id="_Path_" data-name="&lt;Path&gt;" class="cls-1" x="3.75" y="11.21" width="90.51" height="75.58" rx="3.11" ry="3.11"/><line id="_Path_2" data-name="&lt;Path&gt;" class="cls-1" x1="4.06" y1="28.32" x2="93.63" y2="28.32"/><path id="_Path_3" data-name="&lt;Path&gt;" class="cls-1" d="M81.5,79.64a32,32,0,0,0-64.07,0Z"/><path id="_Path_4" data-name="&lt;Path&gt;" class="cls-1" d="M58.69,63c.4,0,.94-.1,1.16.11.43.42-.08.79-.34,1.12-2.52,3.22-5,6.46-7.59,9.64a3.29,3.29,0,0,1-5.47-.31A3.35,3.35,0,0,1,48,68.8c3.15-1.66,6.33-3.29,9.49-4.94l1.22-.66Z"/><line id="_Path_5" data-name="&lt;Path&gt;" class="cls-1" x1="49.47" y1="47.6" x2="49.47" y2="55.07"/><line id="_Path_6" data-name="&lt;Path&gt;" class="cls-1" x1="18.83" y1="70.46" x2="26.29" y2="72.79"/><line id="_Path_7" data-name="&lt;Path&gt;" class="cls-1" x1="79.95" y1="69.99" x2="72.95" y2="73.73"/><circle id="_Path_8" data-name="&lt;Path&gt;" class="cls-1" cx="11.83" cy="19.14" r="2.33"/><circle id="_Path_9" data-name="&lt;Path&gt;" class="cls-1" cx="19.3" cy="19.14" r="2.33"/><circle id="_Path_10" data-name="&lt;Path&gt;" class="cls-1" cx="26.76" cy="19.14" r="2.33"/><line id="_Path_11" data-name="&lt;Path&gt;" class="cls-1" x1="39.36" y1="19.61" x2="85.08" y2="19.61"/><rect class="cls-2" width="98" height="98"/></g></g></svg>