<svg xmlns="http://www.w3.org/2000/svg" viewBox="0 0 98 98"><defs><style>.cls-1,.cls-2{fill:none;}.cls-1{stroke:#F05944;stroke-miterlimit:10;stroke-width:1.5px;}</style></defs><title>001_hashworks_icon3</title><g id="Layer_2" data-name="Layer 2"><g id="Layer_1-2" data-name="Layer 1"><path id="_Compound_Path_" data-name="&lt;Compound Path&gt;" class="cls-1" d="M49,87.9c-10.44,0-20.89-.05-31.33,0-3.19,0-5.85-.78-7.49-3.66s-1.09-5.74.57-8.64C18.23,62.51,39.45,19.77,42.66,14a7,7,0,0,1,12.14-.7c1.94,2.86,23.35,46,32.42,62.17a9.45,9.45,0,0,1,1.53,6.25,7.31,7.31,0,0,1-7.57,6.21Q65.08,87.92,49,87.9Z"/><path id="_Path_" data-name="&lt;Path&gt;" class="cls-1" d="M53.52,35.55C52.71,42.1,51.87,48.9,51,55.7a4.55,4.55,0,0,1-.17.67c-.29,1-.55,2.09-1.92,2.06s-1.59-1-1.79-2c-.34-1.69-.67-3.39-.87-5.11q-.88-7.55-1.64-15.12a10.42,10.42,0,0,1,.17-3.08A4,4,0,0,1,49,29.68a4.07,4.07,0,0,1,4.2,3.38C53.32,33.78,53.38,34.54,53.52,35.55Z"/><path id="_Path_2" data-name="&lt;Path&gt;" class="cls-1" d="M55.64,69.48A6.65,6.65,0,1,1,49,62.9,6.65,6.65,0,0,1,55.64,69.48Z"/><rect class="cls-2" width="98" height="98"/></g></g></svg>