<svg xmlns="http://www.w3.org/2000/svg" viewBox="0 0 146 110"><defs><style>.cls-1,.cls-2,.cls-3{fill:none;}.cls-1{stroke:#000;}.cls-1,.cls-2{stroke-miterlimit:10;stroke-width:1.5px;}.cls-2{stroke:#f05944;}</style></defs><title>001_home_Hire</title><g id="Layer_2" data-name="Layer 2"><g id="Layer_1-2" data-name="Layer 1"><path id="_Path_" data-name="&lt;Path&gt;" class="cls-1" d="M35.43,5.73,5.37,35.78,19.12,49.53,49.39,19.26S35,5.3,35.43,5.73Z"/><path id="_Path_2" data-name="&lt;Path&gt;" class="cls-1" d="M47.37,21.29l6.72,6.78q.35.34.71.66a8.77,8.77,0,0,0,8.46,1.75c2.28-.73,6.59-1.58,10.23.72"/><path id="_Path_3" data-name="&lt;Path&gt;" class="cls-1" d="M21.79,47.3l4.63,4.63A14.16,14.16,0,0,1,30,58.11l1.28,4.57A21.25,21.25,0,0,0,35,70l4.9,5.59"/><path id="_Path_4" data-name="&lt;Path&gt;" class="cls-1" d="M83.29,58.17l20.22,20.94a5.47,5.47,0,0,1-.09,7.69h0a5.47,5.47,0,0,1-7.66,0L72.41,64"/><path id="_Path_5" data-name="&lt;Path&gt;" class="cls-1" d="M96.36,87.37l1.84,1.84a4.64,4.64,0,0,1,.17,6.39l-.61.68a4.64,4.64,0,0,1-6.66.24l-25-24"/><path id="_Path_6" data-name="&lt;Path&gt;" class="cls-1" d="M83.9,89.72l1.84,1.84A4.64,4.64,0,0,1,85.9,98l-.61.68a4.64,4.64,0,0,1-6.66.24L57.44,78.72"/><path id="_Path_7" data-name="&lt;Path&gt;" class="cls-1" d="M71.46,92.14,73.3,94a4.64,4.64,0,0,1,.17,6.39l-.61.68a4.64,4.64,0,0,1-6.36.51"/><polygon id="_Path_8" data-name="&lt;Path&gt;" class="cls-2" points="140.63 33.55 113.77 6.69 99.97 20.17 127.41 47.3 140.63 33.55"/><path id="_Path_9" data-name="&lt;Path&gt;" class="cls-2" d="M102.58,23l-5.13,5.13a7.4,7.4,0,0,1-8.07,1.6h0a16.83,16.83,0,0,0-18,3.25L54.08,49.05a5.47,5.47,0,0,0-.5,7.45l.74.91a5.47,5.47,0,0,0,8,.54L76.14,45.16"/><path id="_Path_10" data-name="&lt;Path&gt;" class="cls-2" d="M124.32,44.42l-6.08,6.08A17.67,17.67,0,0,0,113.78,58l-.88,3a25.38,25.38,0,0,1-4.81,9.05l-5.93,7.16"/><circle id="_Path_11" data-name="&lt;Path&gt;" class="cls-2" cx="43.21" cy="80.87" r="6.18"/><circle id="_Path_12" data-name="&lt;Path&gt;" class="cls-2" cx="51.99" cy="89.72" r="6.18"/><circle id="_Path_13" data-name="&lt;Path&gt;" class="cls-2" cx="61.08" cy="98.1" r="6.18"/><path id="_Path_14" data-name="&lt;Path&gt;" class="cls-2" d="M72.63,48.47S80,62.64,92.77,57.53"/><rect class="cls-3" width="146" height="110"/></g></g></svg>