<svg xmlns="http://www.w3.org/2000/svg" viewBox="0 0 146 114"><defs><style>.cls-1,.cls-2,.cls-3{fill:none;}.cls-1{stroke:#f05944;}.cls-1,.cls-2{stroke-miterlimit:10;stroke-width:1.5px;}.cls-2{stroke:#000;}</style></defs><title>001_home_Request</title><g id="Layer_2" data-name="Layer 2"><g id="Layer_1-2" data-name="Layer 1"><path id="_Compound_Path_" data-name="&lt;Compound Path&gt;" class="cls-1" d="M71.16,59.32A9.65,9.65,0,1,1,61.5,69a9.68,9.68,0,0,1,9.65-9.65Zm0,0"/><path id="_Compound_Path_2" data-name="&lt;Compound Path&gt;" class="cls-1" d="M55.35,98.85H86.77a1.72,1.72,0,0,0,1.73-1.73A16.47,16.47,0,0,0,72,80.67h-2A16.47,16.47,0,0,0,53.62,97.12a1.72,1.72,0,0,0,1.73,1.73Z"/><path id="_Compound_Path_3" data-name="&lt;Compound Path&gt;" class="cls-2" d="M36.1,77.57A8.45,8.45,0,1,1,27.65,86a8.47,8.47,0,0,1,8.45-8.45Zm0,0"/><path id="_Compound_Path_4" data-name="&lt;Compound Path&gt;" class="cls-2" d="M22.27,112.15H49.75a1.5,1.5,0,0,0,1.51-1.51A14.41,14.41,0,0,0,36.87,96.25H35.15a14.41,14.41,0,0,0-14.39,14.39,1.5,1.5,0,0,0,1.51,1.51Z"/><path id="_Compound_Path_5" data-name="&lt;Compound Path&gt;" class="cls-2" d="M107.44,77.57A8.45,8.45,0,1,1,99,86a8.47,8.47,0,0,1,8.45-8.45Zm0,0"/><path id="_Compound_Path_6" data-name="&lt;Compound Path&gt;" class="cls-2" d="M93.62,112.15H121.1a1.5,1.5,0,0,0,1.51-1.51,14.41,14.41,0,0,0-14.39-14.39H106.5A14.41,14.41,0,0,0,92.1,110.64a1.5,1.5,0,0,0,1.51,1.51Z"/><path id="_Path_" data-name="&lt;Path&gt;" class="cls-2" d="M97.74,13,91.1,17.19a8,8,0,0,1-3.71,1.2L44.68,21.17a3.42,3.42,0,0,0-3.2,3.5v.06A3.42,3.42,0,0,0,45,28.06l13.43-.42L39.24,34.1a3.29,3.29,0,0,0-2.09,4.1h0a3.29,3.29,0,0,0,4,2.19l18.17-4.91L39.07,48.35a3.27,3.27,0,0,0-1,4.47h0A3.27,3.27,0,0,0,42.39,54L62.27,42.78,56,51.69a12,12,0,0,0-1.65,4l-1.58,7.5a3,3,0,0,0,2.88,3.66h0a3,3,0,0,0,3-2.11l2.27-7.12a12,12,0,0,1,2.83-4.73l6.54-6.74a8.88,8.88,0,0,1,6.81-2.68l1.12.05a8.9,8.9,0,0,1,7.7,5.29l.4.9A6.22,6.22,0,0,1,86.76,53l-.5,4.22-.84,3.37a11,11,0,0,0,.12,5.75h0a4.88,4.88,0,0,0,4.06,3.46h0a2.19,2.19,0,0,0,2.46-2l.7-7a14.45,14.45,0,0,1,1.73-5.56l7.6-13.75,1.39-1.22,6.09-3Z"/><polygon id="_Path_2" data-name="&lt;Path&gt;" class="cls-2" points="95.56 9.06 111.25 40.44 125.25 34.08 109.98 1.85 95.56 9.06"/><rect class="cls-3" width="146" height="114"/></g></g></svg>