<svg xmlns="http://www.w3.org/2000/svg" viewBox="0 0 98 98"><defs><style>.cls-1,.cls-2{fill:none;}.cls-1{stroke:#F05944;stroke-miterlimit:10;stroke-width:1.5px;}</style></defs><title>001_hashworks_icon1</title><g id="Layer_2" data-name="Layer 2"><g id="Layer_1-2" data-name="Layer 1"><polygon id="_Path_" data-name="&lt;Path&gt;" class="cls-1" points="52.65 14.47 55.87 21.34 49.21 21.34 42.55 21.34 45.6 14.47 38.99 17.78 38.99 11.12 38.99 4.98 45.6 8.46 42.55 0.9 49.21 0.9 55.87 0.9 52.65 8.46 59.43 4.47 59.43 11.12 59.43 17.78 52.65 14.47"/><polyline id="_Path_2" data-name="&lt;Path&gt;" class="cls-1" points="57.97 25.98 57.97 21.52 39.68 21.52 39.68 25.98"/><path id="_Path_3" data-name="&lt;Path&gt;" class="cls-1" d="M40.13,49.17c.51,8.76-1.28,19.88-8.35,33"/><path id="_Path_4" data-name="&lt;Path&gt;" class="cls-1" d="M58.24,43.51a44.65,44.65,0,0,1,6.68-16.84H32.2s5.27,6,7.26,16.9"/><path id="_Path_5" data-name="&lt;Path&gt;" class="cls-1" d="M65.61,82.32c-7.22-12.67-8.82-24-8.13-33.16"/><rect id="_Rectangle_" data-name="&lt;Rectangle&gt;" class="cls-1" x="26.45" y="82.84" width="44.66" height="8.93" rx="2.57" ry="2.57"/><polyline id="_Path_6" data-name="&lt;Path&gt;" class="cls-1" points="66.13 92.11 66.13 97.1 31.6 97.1 31.6 92.11"/><rect id="_Rectangle_2" data-name="&lt;Rectangle&gt;" class="cls-1" x="35.81" y="43.8" width="26.15" height="5.15" rx="1.48" ry="1.48"/><path id="_Path_7" data-name="&lt;Path&gt;" class="cls-1" d="M21.78,84.81a41.25,41.25,0,0,1,8-67.48"/><path id="_Path_8" data-name="&lt;Path&gt;" class="cls-1" d="M67.64,17a41.25,41.25,0,0,1,7.81,68.43"/><rect class="cls-2" width="98" height="98"/></g></g></svg>